<?xml version="1.0" encoding="UTF-8" standalone="no"?>
<!DOCTYPE svg PUBLIC "-//W3C//DTD SVG 1.1//EN"
 "http://www.w3.org/Graphics/SVG/1.1/DTD/svg11.dtd">
<!-- Generated by graphviz version 2.47.0 (20210316.0004)
 -->
<!-- Title: dbml Pages: 1 -->
<svg width="1733pt" height="1093pt"
 viewBox="0.00 0.00 1733.22 1093.05" xmlns="http://www.w3.org/2000/svg" xmlns:xlink="http://www.w3.org/1999/xlink">
<g id="graph0" class="graph" transform="scale(1 1) rotate(0) translate(4 1089.05)">
<title>dbml</title>
<!-- Customer -->
<g id="Customer" class="node">
<title>Customer</title>
<ellipse fill="none" stroke="black" stroke-width="0" cx="1436.01" cy="-700.39" rx="289.41" ry="384.83"/>
<polygon fill="#1d71b8" stroke="transparent" points="1234.01,-910.39 1234.01,-970.39 1639.01,-970.39 1639.01,-910.39 1234.01,-910.39"/>
<polygon fill="none" stroke="#29235c" points="1234.01,-910.39 1234.01,-970.39 1639.01,-970.39 1639.01,-910.39 1234.01,-910.39"/>
<text text-anchor="start" x="1304.93" y="-931.59" font-family="Helvetica,sans-Serif" font-weight="bold" font-size="32.00" fill="#ffffff"> &#160;&#160;&#160;&#160;&#160;&#160;Customer &#160;&#160;&#160;&#160;&#160;&#160;</text>
<polygon fill="#e7e2dd" stroke="transparent" points="1234.01,-850.39 1234.01,-910.39 1639.01,-910.39 1639.01,-850.39 1234.01,-850.39"/>
<polygon fill="none" stroke="#29235c" points="1234.01,-850.39 1234.01,-910.39 1639.01,-910.39 1639.01,-850.39 1234.01,-850.39"/>
<text text-anchor="start" x="1245.01" y="-871.59" font-family="Helvetica,sans-Serif" font-weight="bold" font-size="32.00" fill="#29235c">id</text>
<text text-anchor="start" x="1269.9" y="-871.59" font-family="Helvetica,sans-Serif" font-size="32.00" fill="#29235c"> &#160;&#160;&#160;</text>
<text text-anchor="start" x="1485.79" y="-871.59" font-family="Helvetica,sans-Serif" font-style="italic" font-size="32.00" fill="#29235c">INTEGER</text>
<polygon fill="#e7e2dd" stroke="transparent" points="1234.01,-790.39 1234.01,-850.39 1639.01,-850.39 1639.01,-790.39 1234.01,-790.39"/>
<polygon fill="none" stroke="#29235c" points="1234.01,-790.39 1234.01,-850.39 1639.01,-850.39 1639.01,-790.39 1234.01,-790.39"/>
<text text-anchor="start" x="1245.01" y="-810.59" font-family="Helvetica,sans-Serif" font-size="32.00" fill="#29235c">name &#160;&#160;&#160;</text>
<text text-anchor="start" x="1471.58" y="-811.59" font-family="Helvetica,sans-Serif" font-style="italic" font-size="32.00" fill="#29235c">VARCHAR</text>
<polygon fill="#e7e2dd" stroke="transparent" points="1234.01,-730.39 1234.01,-790.39 1639.01,-790.39 1639.01,-730.39 1234.01,-730.39"/>
<polygon fill="none" stroke="#29235c" points="1234.01,-730.39 1234.01,-790.39 1639.01,-790.39 1639.01,-730.39 1234.01,-730.39"/>
<text text-anchor="start" x="1245.01" y="-750.59" font-family="Helvetica,sans-Serif" font-size="32.00" fill="#29235c">email &#160;&#160;&#160;</text>
<text text-anchor="start" x="1471.58" y="-751.59" font-family="Helvetica,sans-Serif" font-style="italic" font-size="32.00" fill="#29235c">VARCHAR</text>
<polygon fill="#e7e2dd" stroke="transparent" points="1234.01,-670.39 1234.01,-730.39 1639.01,-730.39 1639.01,-670.39 1234.01,-670.39"/>
<polygon fill="none" stroke="#29235c" points="1234.01,-670.39 1234.01,-730.39 1639.01,-730.39 1639.01,-670.39 1234.01,-670.39"/>
<text text-anchor="start" x="1245.01" y="-690.59" font-family="Helvetica,sans-Serif" font-size="32.00" fill="#29235c">phone &#160;&#160;&#160;</text>
<text text-anchor="start" x="1471.58" y="-691.59" font-family="Helvetica,sans-Serif" font-style="italic" font-size="32.00" fill="#29235c">VARCHAR</text>
<polygon fill="#e7e2dd" stroke="transparent" points="1234.01,-610.39 1234.01,-670.39 1639.01,-670.39 1639.01,-610.39 1234.01,-610.39"/>
<polygon fill="none" stroke="#29235c" points="1234.01,-610.39 1234.01,-670.39 1639.01,-670.39 1639.01,-610.39 1234.01,-610.39"/>
<text text-anchor="start" x="1244.85" y="-630.59" font-family="Helvetica,sans-Serif" font-size="32.00" fill="#29235c">created_date &#160;&#160;&#160;</text>
<text text-anchor="start" x="1466.63" y="-631.59" font-family="Helvetica,sans-Serif" font-style="italic" font-size="32.00" fill="#29235c">DATETIME</text>
<polygon fill="#e7e2dd" stroke="transparent" points="1234.01,-550.39 1234.01,-610.39 1639.01,-610.39 1639.01,-550.39 1234.01,-550.39"/>
<polygon fill="none" stroke="#29235c" points="1234.01,-550.39 1234.01,-610.39 1639.01,-610.39 1639.01,-550.39 1234.01,-550.39"/>
<text text-anchor="start" x="1245.01" y="-570.59" font-family="Helvetica,sans-Serif" font-size="32.00" fill="#29235c">address &#160;&#160;&#160;</text>
<text text-anchor="start" x="1471.58" y="-571.59" font-family="Helvetica,sans-Serif" font-style="italic" font-size="32.00" fill="#29235c">VARCHAR</text>
<polygon fill="#e7e2dd" stroke="transparent" points="1234.01,-490.39 1234.01,-550.39 1639.01,-550.39 1639.01,-490.39 1234.01,-490.39"/>
<polygon fill="none" stroke="#29235c" points="1234.01,-490.39 1234.01,-550.39 1639.01,-550.39 1639.01,-490.39 1234.01,-490.39"/>
<text text-anchor="start" x="1245.01" y="-510.59" font-family="Helvetica,sans-Serif" font-size="32.00" fill="#29235c">balance &#160;&#160;&#160;</text>
<text text-anchor="start" x="1485.79" y="-511.59" font-family="Helvetica,sans-Serif" font-style="italic" font-size="32.00" fill="#29235c">INTEGER</text>
<polygon fill="#e7e2dd" stroke="transparent" points="1234.01,-430.39 1234.01,-490.39 1639.01,-490.39 1639.01,-430.39 1234.01,-430.39"/>
<polygon fill="none" stroke="#29235c" points="1234.01,-430.39 1234.01,-490.39 1639.01,-490.39 1639.01,-430.39 1234.01,-430.39"/>
<text text-anchor="start" x="1245.01" y="-450.59" font-family="Helvetica,sans-Serif" font-size="32.00" fill="#29235c">credit_limit &#160;&#160;&#160;</text>
<text text-anchor="start" x="1485.79" y="-451.59" font-family="Helvetica,sans-Serif" font-style="italic" font-size="32.00" fill="#29235c">INTEGER</text>
<polygon fill="none" stroke="#29235c" stroke-width="2" points="1232.51,-429.39 1232.51,-971.39 1639.51,-971.39 1639.51,-429.39 1232.51,-429.39"/>
</g>
<!-- Item -->
<g id="Item" class="node">
<title>Item</title>
<ellipse fill="none" stroke="black" stroke-width="0" cx="248.9" cy="-523.39" rx="248.8" ry="342.48"/>
<polygon fill="#1d71b8" stroke="transparent" points="74.9,-703.39 74.9,-763.39 422.9,-763.39 422.9,-703.39 74.9,-703.39"/>
<polygon fill="none" stroke="#29235c" points="74.9,-703.39 74.9,-763.39 422.9,-763.39 422.9,-703.39 74.9,-703.39"/>
<text text-anchor="start" x="155.54" y="-724.59" font-family="Helvetica,sans-Serif" font-weight="bold" font-size="32.00" fill="#ffffff"> &#160;&#160;&#160;&#160;&#160;&#160;Item &#160;&#160;&#160;&#160;&#160;&#160;</text>
<polygon fill="#e7e2dd" stroke="transparent" points="74.9,-643.39 74.9,-703.39 422.9,-703.39 422.9,-643.39 74.9,-643.39"/>
<polygon fill="none" stroke="#29235c" points="74.9,-643.39 74.9,-703.39 422.9,-703.39 422.9,-643.39 74.9,-643.39"/>
<text text-anchor="start" x="85.9" y="-664.59" font-family="Helvetica,sans-Serif" font-weight="bold" font-size="32.00" fill="#29235c">id</text>
<text text-anchor="start" x="110.79" y="-664.59" font-family="Helvetica,sans-Serif" font-size="32.00" fill="#29235c"> &#160;&#160;&#160;</text>
<text text-anchor="start" x="269.68" y="-664.59" font-family="Helvetica,sans-Serif" font-style="italic" font-size="32.00" fill="#29235c">INTEGER</text>
<polygon fill="#e7e2dd" stroke="transparent" points="74.9,-583.39 74.9,-643.39 422.9,-643.39 422.9,-583.39 74.9,-583.39"/>
<polygon fill="none" stroke="#29235c" points="74.9,-583.39 74.9,-643.39 422.9,-643.39 422.9,-583.39 74.9,-583.39"/>
<text text-anchor="start" x="85.9" y="-603.59" font-family="Helvetica,sans-Serif" font-size="32.00" fill="#29235c">order_id &#160;&#160;&#160;</text>
<text text-anchor="start" x="269.68" y="-604.59" font-family="Helvetica,sans-Serif" font-style="italic" font-size="32.00" fill="#29235c">INTEGER</text>
<polygon fill="#e7e2dd" stroke="transparent" points="74.9,-523.39 74.9,-583.39 422.9,-583.39 422.9,-523.39 74.9,-523.39"/>
<polygon fill="none" stroke="#29235c" points="74.9,-523.39 74.9,-583.39 422.9,-583.39 422.9,-523.39 74.9,-523.39"/>
<text text-anchor="start" x="85.43" y="-543.59" font-family="Helvetica,sans-Serif" font-size="32.00" fill="#29235c">product_id &#160;&#160;&#160;</text>
<text text-anchor="start" x="269.79" y="-544.59" font-family="Helvetica,sans-Serif" font-style="italic" font-size="32.00" fill="#29235c">INTEGER</text>
<polygon fill="#e7e2dd" stroke="transparent" points="74.9,-463.39 74.9,-523.39 422.9,-523.39 422.9,-463.39 74.9,-463.39"/>
<polygon fill="none" stroke="#29235c" points="74.9,-463.39 74.9,-523.39 422.9,-523.39 422.9,-463.39 74.9,-463.39"/>
<text text-anchor="start" x="85.9" y="-483.59" font-family="Helvetica,sans-Serif" font-size="32.00" fill="#29235c">quantity &#160;&#160;&#160;</text>
<text text-anchor="start" x="269.68" y="-484.59" font-family="Helvetica,sans-Serif" font-style="italic" font-size="32.00" fill="#29235c">INTEGER</text>
<polygon fill="#e7e2dd" stroke="transparent" points="74.9,-403.39 74.9,-463.39 422.9,-463.39 422.9,-403.39 74.9,-403.39"/>
<polygon fill="none" stroke="#29235c" points="74.9,-403.39 74.9,-463.39 422.9,-463.39 422.9,-403.39 74.9,-403.39"/>
<text text-anchor="start" x="85.9" y="-423.59" font-family="Helvetica,sans-Serif" font-size="32.00" fill="#29235c">price &#160;&#160;&#160;</text>
<text text-anchor="start" x="269.68" y="-424.59" font-family="Helvetica,sans-Serif" font-style="italic" font-size="32.00" fill="#29235c">INTEGER</text>
<polygon fill="#e7e2dd" stroke="transparent" points="74.9,-343.39 74.9,-403.39 422.9,-403.39 422.9,-343.39 74.9,-343.39"/>
<polygon fill="none" stroke="#29235c" points="74.9,-343.39 74.9,-403.39 422.9,-403.39 422.9,-343.39 74.9,-343.39"/>
<text text-anchor="start" x="85.9" y="-363.59" font-family="Helvetica,sans-Serif" font-size="32.00" fill="#29235c">amount &#160;&#160;&#160;</text>
<text text-anchor="start" x="269.68" y="-364.59" font-family="Helvetica,sans-Serif" font-style="italic" font-size="32.00" fill="#29235c">INTEGER</text>
<polygon fill="#e7e2dd" stroke="transparent" points="74.9,-283.39 74.9,-343.39 422.9,-343.39 422.9,-283.39 74.9,-283.39"/>
<polygon fill="none" stroke="#29235c" points="74.9,-283.39 74.9,-343.39 422.9,-343.39 422.9,-283.39 74.9,-283.39"/>
<text text-anchor="start" x="85.9" y="-303.59" font-family="Helvetica,sans-Serif" font-size="32.00" fill="#29235c">unit_price &#160;&#160;&#160;</text>
<text text-anchor="start" x="269.68" y="-304.59" font-family="Helvetica,sans-Serif" font-style="italic" font-size="32.00" fill="#29235c">INTEGER</text>
<polygon fill="none" stroke="#29235c" stroke-width="2" points="73.9,-282.39 73.9,-764.39 423.9,-764.39 423.9,-282.39 73.9,-282.39"/>
</g>
<!-- Order -->
<g id="Order" class="node">
<title>Order</title>
<ellipse fill="none" stroke="black" stroke-width="0" cx="822.3" cy="-790.39" rx="274.21" ry="257.27"/>
<polygon fill="#1d71b8" stroke="transparent" points="630.3,-910.39 630.3,-970.39 1014.3,-970.39 1014.3,-910.39 630.3,-910.39"/>
<polygon fill="none" stroke="#29235c" points="630.3,-910.39 630.3,-970.39 1014.3,-970.39 1014.3,-910.39 630.3,-910.39"/>
<text text-anchor="start" x="719.17" y="-931.59" font-family="Helvetica,sans-Serif" font-weight="bold" font-size="32.00" fill="#ffffff"> &#160;&#160;&#160;&#160;&#160;&#160;Order &#160;&#160;&#160;&#160;&#160;&#160;</text>
<polygon fill="#e7e2dd" stroke="transparent" points="630.3,-850.39 630.3,-910.39 1014.3,-910.39 1014.3,-850.39 630.3,-850.39"/>
<polygon fill="none" stroke="#29235c" points="630.3,-850.39 630.3,-910.39 1014.3,-910.39 1014.3,-850.39 630.3,-850.39"/>
<text text-anchor="start" x="641.3" y="-871.59" font-family="Helvetica,sans-Serif" font-weight="bold" font-size="32.00" fill="#29235c">id</text>
<text text-anchor="start" x="666.19" y="-871.59" font-family="Helvetica,sans-Serif" font-size="32.00" fill="#29235c"> &#160;&#160;&#160;</text>
<text text-anchor="start" x="861.09" y="-871.59" font-family="Helvetica,sans-Serif" font-style="italic" font-size="32.00" fill="#29235c">INTEGER</text>
<polygon fill="#e7e2dd" stroke="transparent" points="630.3,-790.39 630.3,-850.39 1014.3,-850.39 1014.3,-790.39 630.3,-790.39"/>
<polygon fill="none" stroke="#29235c" points="630.3,-790.39 630.3,-850.39 1014.3,-850.39 1014.3,-790.39 630.3,-790.39"/>
<text text-anchor="start" x="641.3" y="-810.59" font-family="Helvetica,sans-Serif" font-size="32.00" fill="#29235c">order_date &#160;&#160;&#160;</text>
<text text-anchor="start" x="841.54" y="-811.59" font-family="Helvetica,sans-Serif" font-style="italic" font-size="32.00" fill="#29235c">DATETIME</text>
<polygon fill="#e7e2dd" stroke="transparent" points="630.3,-730.39 630.3,-790.39 1014.3,-790.39 1014.3,-730.39 630.3,-730.39"/>
<polygon fill="none" stroke="#29235c" points="630.3,-730.39 630.3,-790.39 1014.3,-790.39 1014.3,-730.39 630.3,-730.39"/>
<text text-anchor="start" x="641.3" y="-750.59" font-family="Helvetica,sans-Serif" font-size="32.00" fill="#29235c">customer_id &#160;&#160;&#160;</text>
<text text-anchor="start" x="861.09" y="-751.59" font-family="Helvetica,sans-Serif" font-style="italic" font-size="32.00" fill="#29235c">INTEGER</text>
<polygon fill="#e7e2dd" stroke="transparent" points="630.3,-670.39 630.3,-730.39 1014.3,-730.39 1014.3,-670.39 630.3,-670.39"/>
<polygon fill="none" stroke="#29235c" points="630.3,-670.39 630.3,-730.39 1014.3,-730.39 1014.3,-670.39 630.3,-670.39"/>
<text text-anchor="start" x="641.3" y="-690.59" font-family="Helvetica,sans-Serif" font-size="32.00" fill="#29235c">notes &#160;&#160;&#160;</text>
<text text-anchor="start" x="846.88" y="-691.59" font-family="Helvetica,sans-Serif" font-style="italic" font-size="32.00" fill="#29235c">VARCHAR</text>
<polygon fill="#e7e2dd" stroke="transparent" points="630.3,-610.39 630.3,-670.39 1014.3,-670.39 1014.3,-610.39 630.3,-610.39"/>
<polygon fill="none" stroke="#29235c" points="630.3,-610.39 630.3,-670.39 1014.3,-670.39 1014.3,-610.39 630.3,-610.39"/>
<text text-anchor="start" x="641.04" y="-630.59" font-family="Helvetica,sans-Serif" font-size="32.00" fill="#29235c">amount_total &#160;&#160;&#160;</text>
<text text-anchor="start" x="861.19" y="-631.59" font-family="Helvetica,sans-Serif" font-style="italic" font-size="32.00" fill="#29235c">INTEGER</text>
<polygon fill="none" stroke="#29235c" stroke-width="2" points="629.3,-609.39 629.3,-971.39 1015.3,-971.39 1015.3,-609.39 629.3,-609.39"/>
</g>
<!-- Item&#45;&gt;Order -->
<!-- Item&#45;&gt;Order -->
<g id="edge2" class="edge">
<title>Item:e&#45;&gt;Order:w</title>
<path fill="none" stroke="#29235c" stroke-width="3" d="M423.9,-613.39C570.11,-613.39 483.86,-868.02 619.17,-879.95"/>
<polygon fill="#29235c" stroke="#29235c" stroke-width="3" points="619.16,-883.46 629.3,-880.39 619.46,-876.46 619.16,-883.46"/>
<text text-anchor="middle" x="635.53" y="-889.99" font-family="Helvetica,sans-Serif" font-size="32.00" fill="#29235c">*</text>
<text text-anchor="middle" x="415.01" y="-622.99" font-family="Helvetica,sans-Serif" font-size="32.00" fill="#29235c">1</text>
</g>
<!-- Product -->
<g id="Product" class="node">
<title>Product</title>
<ellipse fill="none" stroke="black" stroke-width="0" cx="822.3" cy="-257.39" rx="288.5" ry="257.27"/>
<polygon fill="#1d71b8" stroke="transparent" points="620.3,-377.39 620.3,-437.39 1024.3,-437.39 1024.3,-377.39 620.3,-377.39"/>
<polygon fill="none" stroke="#29235c" points="620.3,-377.39 620.3,-437.39 1024.3,-437.39 1024.3,-377.39 620.3,-377.39"/>
<text text-anchor="start" x="704.93" y="-398.59" font-family="Helvetica,sans-Serif" font-weight="bold" font-size="32.00" fill="#ffffff"> &#160;&#160;&#160;&#160;&#160;&#160;Product &#160;&#160;&#160;&#160;&#160;&#160;</text>
<polygon fill="#e7e2dd" stroke="transparent" points="620.3,-317.39 620.3,-377.39 1024.3,-377.39 1024.3,-317.39 620.3,-317.39"/>
<polygon fill="none" stroke="#29235c" points="620.3,-317.39 620.3,-377.39 1024.3,-377.39 1024.3,-317.39 620.3,-317.39"/>
<text text-anchor="start" x="631.3" y="-338.59" font-family="Helvetica,sans-Serif" font-weight="bold" font-size="32.00" fill="#29235c">id</text>
<text text-anchor="start" x="656.19" y="-338.59" font-family="Helvetica,sans-Serif" font-size="32.00" fill="#29235c"> &#160;&#160;&#160;</text>
<text text-anchor="start" x="871.09" y="-338.59" font-family="Helvetica,sans-Serif" font-style="italic" font-size="32.00" fill="#29235c">INTEGER</text>
<polygon fill="#e7e2dd" stroke="transparent" points="620.3,-257.39 620.3,-317.39 1024.3,-317.39 1024.3,-257.39 620.3,-257.39"/>
<polygon fill="none" stroke="#29235c" points="620.3,-257.39 620.3,-317.39 1024.3,-317.39 1024.3,-257.39 620.3,-257.39"/>
<text text-anchor="start" x="631.3" y="-277.59" font-family="Helvetica,sans-Serif" font-size="32.00" fill="#29235c">name &#160;&#160;&#160;</text>
<text text-anchor="start" x="856.88" y="-278.59" font-family="Helvetica,sans-Serif" font-style="italic" font-size="32.00" fill="#29235c">VARCHAR</text>
<polygon fill="#e7e2dd" stroke="transparent" points="620.3,-197.39 620.3,-257.39 1024.3,-257.39 1024.3,-197.39 620.3,-197.39"/>
<polygon fill="none" stroke="#29235c" points="620.3,-197.39 620.3,-257.39 1024.3,-257.39 1024.3,-197.39 620.3,-197.39"/>
<text text-anchor="start" x="631.3" y="-217.59" font-family="Helvetica,sans-Serif" font-size="32.00" fill="#29235c">description &#160;&#160;&#160;</text>
<text text-anchor="start" x="856.88" y="-218.59" font-family="Helvetica,sans-Serif" font-style="italic" font-size="32.00" fill="#29235c">VARCHAR</text>
<polygon fill="#e7e2dd" stroke="transparent" points="620.3,-137.39 620.3,-197.39 1024.3,-197.39 1024.3,-137.39 620.3,-137.39"/>
<polygon fill="none" stroke="#29235c" points="620.3,-137.39 620.3,-197.39 1024.3,-197.39 1024.3,-137.39 620.3,-137.39"/>
<text text-anchor="start" x="631.3" y="-157.59" font-family="Helvetica,sans-Serif" font-size="32.00" fill="#29235c">price &#160;&#160;&#160;</text>
<text text-anchor="start" x="871.09" y="-158.59" font-family="Helvetica,sans-Serif" font-style="italic" font-size="32.00" fill="#29235c">INTEGER</text>
<polygon fill="#e7e2dd" stroke="transparent" points="620.3,-77.39 620.3,-137.39 1024.3,-137.39 1024.3,-77.39 620.3,-77.39"/>
<polygon fill="none" stroke="#29235c" points="620.3,-77.39 620.3,-137.39 1024.3,-137.39 1024.3,-77.39 620.3,-77.39"/>
<text text-anchor="start" x="631.26" y="-97.59" font-family="Helvetica,sans-Serif" font-size="32.00" fill="#29235c">stock_quantity &#160;&#160;&#160;</text>
<text text-anchor="start" x="871.19" y="-98.59" font-family="Helvetica,sans-Serif" font-style="italic" font-size="32.00" fill="#29235c">INTEGER</text>
<polygon fill="none" stroke="#29235c" stroke-width="2" points="619.3,-76.39 619.3,-438.39 1025.3,-438.39 1025.3,-76.39 619.3,-76.39"/>
</g>
<!-- Item&#45;&gt;Product -->
<!-- Item&#45;&gt;Product -->
<g id="edge4" class="edge">
<title>Item:e&#45;&gt;Product:w</title>
<path fill="none" stroke="#29235c" stroke-width="3" d="M423.9,-553.39C546.52,-553.39 496.19,-358.89 609.01,-347.87"/>
<polygon fill="#29235c" stroke="#29235c" stroke-width="3" points="609.48,-351.36 619.3,-347.39 609.15,-344.36 609.48,-351.36"/>
<text text-anchor="middle" x="625.53" y="-318.59" font-family="Helvetica,sans-Serif" font-size="32.00" fill="#29235c">*</text>
<text text-anchor="middle" x="415.01" y="-562.99" font-family="Helvetica,sans-Serif" font-size="32.00" fill="#29235c">1</text>
</g>
<!-- Order&#45;&gt;Customer -->
<!-- Order&#45;&gt;Customer -->
<g id="edge6" class="edge">
<title>Order:e&#45;&gt;Customer:w</title>
<path fill="none" stroke="#29235c" stroke-width="3" d="M1015.3,-760.39C1122.33,-760.39 1122.62,-873 1222.98,-880.04"/>
<polygon fill="#29235c" stroke="#29235c" stroke-width="3" points="1222.89,-883.54 1233.01,-880.39 1223.13,-876.55 1222.89,-883.54"/>
<text text-anchor="middle" x="1226.79" y="-889.99" font-family="Helvetica,sans-Serif" font-size="32.00" fill="#29235c">*</text>
<text text-anchor="middle" x="1024.2" y="-769.99" font-family="Helvetica,sans-Serif" font-size="32.00" fill="#29235c">1</text>
</g>
</g>
</svg>
